<svg width="32" height="32" viewBox="0 0 32 32" fill="none" xmlns="http://www.w3.org/2000/svg">
<path d="M28.6671 16.0004C28.6671 22.996 22.996 28.6671 16.0004 28.6671M28.6671 16.0004C28.6671 9.0048 22.996 3.33374 16.0004 3.33374M28.6671 16.0004H3.33374M16.0004 28.6671C9.0048 28.6671 3.33374 22.996 3.33374 16.0004M16.0004 28.6671V3.33374M3.33374 16.0004C3.33374 9.0048 9.0048 3.33374 16.0004 3.33374" stroke="#51555B" stroke-width="1.5"/>
<path d="M6.00024 7.83521C8.31799 9.55847 11.9355 10.6669 16.0002 10.6669C20.065 10.6669 23.6825 9.55847 26.0002 7.83521" stroke="#51555B" stroke-width="1.5"/>
<path d="M6.00024 24.1665C8.31799 22.4432 11.9355 21.3348 16.0002 21.3348C20.065 21.3348 23.6825 22.4432 26.0002 24.1665" stroke="#51555B" stroke-width="1.5"/>
<ellipse cx="16.0025" cy="15.9998" rx="6.1675" ry="12" stroke="#51555B" stroke-width="1.5"/>
</svg>
