<svg width="143" height="32" viewBox="0 0 143 32" fill="none" xmlns="http://www.w3.org/2000/svg">
<rect width="143" height="32" fill="#451F49"/>
<path fill-rule="evenodd" clip-rule="evenodd" d="M0 29.2745H16.0463V3.19995H0V29.2745Z" fill="#C6C9D4"/>
<path fill-rule="evenodd" clip-rule="evenodd" d="M47.5974 28.3141C47.5554 27.4953 47.5119 25.47 47.5119 20.0409V15.4735C47.5119 10.1581 47.6281 4.17237 47.6693 2.04632L47.6693 2.04605C47.6782 1.58709 47.6836 1.30806 47.6836 1.25457C47.6836 1.03915 47.6409 0.780029 47.5554 0.780029C47.4109 0.780029 47.2376 0.840773 47.1093 0.885736L47.1093 0.885738L47.1092 0.885748L47.109 0.88582C47.0842 0.894522 47.0611 0.902631 47.0401 0.90959L46.8933 0.963347C45.9897 1.29428 45.0027 1.65581 43.8226 1.90081C43.4364 1.98666 43.1784 2.11622 43.1784 2.24579C43.1784 2.37457 43.3074 2.4612 43.6081 2.63291C44.7234 3.32286 44.8089 3.53749 44.8089 4.48579C44.8366 5.71492 44.8284 7.63235 44.8192 9.78013C44.8142 10.9451 44.8089 12.1778 44.8089 13.4052C44.7661 18.5759 44.5944 25.8579 44.5089 27.4524C44.3371 29.3482 44.0799 29.7353 43.0066 29.9508L42.9576 29.9621C42.4361 30.083 42.2349 30.1297 42.2349 30.3387C42.2349 30.5541 42.4486 30.597 42.9639 30.597C43.2655 30.597 43.642 30.5804 44.0639 30.5618C44.6018 30.5381 45.2136 30.5112 45.8386 30.5112C46.209 30.5112 46.789 30.5333 47.3603 30.555C47.9145 30.5762 48.4606 30.597 48.7989 30.597C49.3569 30.597 49.6577 30.4682 49.6577 30.2957C49.6577 30.167 49.3569 30.0374 49.0997 29.9937C47.8981 29.7791 47.6409 29.477 47.5974 28.3141ZM140.758 4.3382H140.557V3.81293C140.602 3.802 140.68 3.79107 140.791 3.79107C141.059 3.79107 141.18 3.9019 141.18 4.06971C141.18 4.26015 140.992 4.3382 140.758 4.3382ZM140.123 5.37859H140.546V4.64024H140.746C140.98 4.64024 141.092 4.73 141.125 4.93059C141.135 4.96904 141.144 5.00601 141.153 5.04119L141.153 5.04132L141.153 5.04142L141.153 5.04153L141.153 5.04167C141.194 5.20119 141.225 5.32363 141.27 5.37859H141.727C141.682 5.31146 141.648 5.19985 141.592 4.92044C141.537 4.67459 141.437 4.53956 141.258 4.47244V4.45059C141.481 4.38346 141.637 4.22659 141.637 4.02522C141.637 3.84649 141.559 3.70132 141.459 3.62249C141.326 3.54444 141.17 3.48902 140.825 3.48902C140.525 3.48902 140.291 3.51088 140.123 3.54444V5.37859ZM140.847 5.95459C139.983 5.95459 139.35 5.274 139.35 4.41702C139.35 3.57176 139.983 2.8779 140.835 2.8779C141.69 2.8779 142.31 3.57176 142.31 4.42873C142.31 5.274 141.69 5.95459 140.847 5.95459ZM140.835 6.27302C141.893 6.27302 142.707 5.45663 142.707 4.41702C142.707 3.39927 141.893 2.58288 140.835 2.58288C139.789 2.58288 138.954 3.39927 138.954 4.41702C138.954 5.45663 139.789 6.27302 140.835 6.27302ZM33.1814 3.96856C33.1814 3.83978 33.0944 3.58143 32.8807 3.4948C32.1517 3.27939 30.0486 2.71899 28.0746 2.71899C25.5861 2.71899 23.6991 3.53773 22.5404 4.44309C20.8236 5.77851 19.7946 7.63139 19.7946 10.0009C19.7946 13.7067 22.4114 16.0333 25.7151 18.2741C28.8044 20.3424 30.8639 21.9799 30.8639 24.9098C30.8639 27.7539 28.6326 30.5114 25.2006 30.5114C22.4549 30.5114 19.6656 29.0464 18.8931 25.8144C18.7213 25.2119 18.5931 24.9528 18.4221 24.9528C18.2504 24.9528 18.1633 25.2977 18.2068 25.7715C18.2068 26.4806 18.3684 27.3721 18.4974 28.0846C18.5566 28.4112 18.609 28.7002 18.6358 28.9168C18.7213 29.5202 18.8931 29.8214 19.3648 30.0806C20.6954 30.8127 23.3121 31.2864 25.2006 31.2864C29.6624 31.2864 34.1677 28.4002 34.1677 23.6173C34.1677 19.8687 31.7227 17.9299 30.0914 16.7662C28.7189 15.775 27.3456 14.7838 25.7151 13.6638C24.1274 12.5867 22.6266 11.0351 22.6266 8.66553C22.6266 5.08934 25.6296 3.36524 27.6464 3.36524C28.7616 3.36524 30.1769 3.75392 31.1211 4.48602C31.9799 5.04641 32.4089 5.90807 32.7517 7.02807C32.8371 7.50182 32.9662 7.71802 33.1379 7.71802C33.3097 7.71802 33.4387 7.41597 33.3524 6.85558L33.3373 6.69158C33.2854 6.13349 33.1814 5.01623 33.1814 3.96856ZM40.4323 8.79478C40.4323 9.95849 39.4025 10.4322 38.8445 10.4322C38.0728 10.4322 37.4293 9.70015 37.4293 8.83771C37.4293 7.76063 38.2446 7.15732 38.93 7.15732C39.9178 7.15732 40.4323 8.06268 40.4323 8.79478ZM36.1415 15.8184C37.3003 15.5163 38.33 15.0863 39.2308 14.6976C39.5743 14.483 39.7888 14.3963 39.8743 14.3963C40.0033 14.3963 40.0896 14.5259 40.046 14.9997C39.9606 15.8613 39.9606 18.4892 39.9606 21.2475C39.9606 24.8666 39.9606 28.0557 40.046 28.7878C40.1315 29.6494 40.5613 29.8648 41.2476 30.0373C41.6766 30.124 41.8911 30.2098 41.8911 30.3823C41.8911 30.5977 41.5483 30.6836 41.204 30.6836C41.063 30.6836 40.761 30.6605 40.378 30.6312L40.378 30.6312L40.3779 30.6312C39.7141 30.5804 38.8071 30.5111 38.0728 30.5111C37.1751 30.5111 36.5704 30.5459 36.1277 30.5714H36.1277H36.1277H36.1277H36.1276H36.1276C35.8721 30.5861 35.6707 30.5977 35.498 30.5977C35.198 30.5977 34.8973 30.5111 34.8973 30.3394C34.8973 30.1669 35.1118 30.0373 35.7125 29.9507C36.6568 29.6923 37.0431 29.3481 37.0858 27.5811C37.1285 26.2886 37.214 18.4471 37.214 18.0155C37.214 17.4129 37.1721 17.1538 35.9698 16.5076C35.7553 16.378 35.627 16.2492 35.627 16.1626C35.627 16.0338 35.7553 15.9042 36.1415 15.8184ZM54.6772 14.9563C55.107 14.9563 55.3207 15.0422 55.3207 15.2155C55.3207 15.3872 55.0635 15.5167 54.7207 15.6026C53.6047 15.9046 53.5192 16.163 53.8619 17.4555C54.2482 18.7917 56.823 25.4703 57.381 26.5037C57.423 26.6769 57.5092 26.7199 57.552 26.5903C58.11 25.5561 60.513 19.8258 61.0275 18.2742C61.0826 18.108 61.1357 17.9557 61.1852 17.8139L61.1852 17.8138C61.3668 17.2934 61.4992 16.9138 61.4992 16.5072C61.4992 16.2488 61.242 15.7751 60.0832 15.5167C59.7405 15.4301 59.5687 15.3013 59.5687 15.1288C59.5687 14.9993 59.7405 14.9563 60.0832 14.9563C60.3022 14.9563 60.5443 14.9797 60.8228 15.0066C61.1996 15.0431 61.6429 15.0859 62.1855 15.0859C62.5781 15.0859 63.1106 15.0436 63.5669 15.0073C63.9091 14.9801 64.2085 14.9563 64.374 14.9563C64.674 14.9563 64.9748 15.0422 64.9748 15.2155C64.9748 15.3872 64.7175 15.4738 64.3313 15.6026C63.4725 15.818 63.0007 16.3355 62.4862 17.5421C61.4992 19.6962 59.3115 24.522 58.8817 25.5561C58.6835 25.9963 58.4878 26.4186 58.2984 26.8273L58.2981 26.8278C57.7087 28.0998 57.18 29.2408 56.823 30.3819C56.6077 31.0281 56.4367 31.1148 56.3085 31.1148C56.1795 31.1148 56.0077 31.0711 55.836 30.4685C55.7818 30.3051 55.7221 30.117 55.6535 29.9008C55.4504 29.2609 55.1692 28.3745 54.7207 27.1507C54.5708 26.766 54.3547 26.2028 54.0983 25.5349L54.0975 25.5327L54.0974 25.5324L54.0972 25.532L54.0971 25.5316C53.0323 22.7572 51.2751 18.1788 50.6872 17.0683C50.2574 16.2488 49.8292 15.818 48.7567 15.5597C48.3704 15.4738 48.1559 15.3442 48.1559 15.2155C48.1559 15.0422 48.3704 14.9134 48.8857 14.9134C49.4761 14.9134 49.9525 14.9551 50.437 14.9974C50.9384 15.0413 51.4487 15.0859 52.1032 15.0859C52.758 15.0859 53.2756 15.0445 53.7258 15.0085C54.0722 14.9808 54.3788 14.9563 54.6772 14.9563ZM65.5335 18.5324C65.5335 18.1882 65.9189 17.3695 66.4342 16.7661C67.3777 15.7749 68.451 15.1724 69.5654 15.1724C70.5532 15.1724 71.2822 15.5595 71.7112 15.9903C72.183 16.507 72.3112 17.2836 72.3112 17.8003C72.3112 18.1882 72.2265 18.6619 71.2822 18.6619L65.7052 18.7049C65.6182 18.7049 65.5335 18.619 65.5335 18.5324ZM74.7577 19.4377C74.9722 19.4377 75.1867 19.1794 75.1867 18.9632C75.1867 16.3353 72.4837 14.5691 69.9517 14.5691C67.7212 14.5691 65.7472 15.6024 64.5892 16.7232C62.7877 18.4895 62.1007 21.0315 62.1007 23.0139C62.1007 25.3406 62.8724 27.4089 64.1594 28.788C65.4464 30.1663 67.2495 30.9851 69.2662 30.9851C71.7112 30.9851 73.5127 30.1234 75.2295 28.2705C75.4867 27.9693 75.6585 27.7101 75.6585 27.5814C75.6585 27.3659 75.4867 27.2793 75.1432 27.6243C74.1142 28.6155 72.8272 29.0034 71.0677 29.0034C69.6517 29.0034 67.9357 28.5289 66.7769 27.2364C65.6617 25.9868 64.8029 24.2206 64.8029 22.0227C64.8029 20.8161 64.9319 20.1698 65.1464 19.6532C65.2327 19.5236 65.4464 19.3082 65.5335 19.3082H67.8494C68.8365 19.3082 74.4142 19.3948 74.7577 19.4377ZM81.2795 17.757C80.8077 18.2745 80.5925 18.7483 80.5505 19.2649C80.4846 19.624 80.4935 20.4268 80.5017 21.1696C80.5044 21.4084 80.507 21.641 80.507 21.8507C80.507 25.039 80.5925 27.2798 80.6795 28.1844C80.8497 29.5206 81.365 29.8218 82.9955 29.9943C83.5962 30.0809 83.8107 30.1668 83.8107 30.3822C83.8107 30.5976 83.4245 30.6835 82.781 30.6835C82.4532 30.6835 82.0284 30.6556 81.5204 30.6223L81.5204 30.6222L81.5203 30.6222H81.5203C80.7649 30.5727 79.8255 30.511 78.7474 30.511C77.7967 30.511 77.252 30.609 76.8337 30.6843C76.5728 30.7312 76.3611 30.7693 76.1307 30.7693C75.6162 30.7693 75.4017 30.6835 75.4017 30.511C75.4017 30.3822 75.7017 30.1668 76.0452 30.0809C76.946 29.8647 77.4177 29.4776 77.5895 28.3139C77.6749 27.581 77.7185 25.1248 77.7185 22.2815V17.4987C77.7185 17.271 77.5466 17.1413 77.1105 16.8125C76.9698 16.7063 76.8014 16.5794 76.6024 16.4216C76.3025 16.2062 76.2597 16.0767 76.2597 15.9479C76.2597 15.8612 76.517 15.6888 76.9024 15.6029C77.762 15.3446 78.9627 14.9129 79.6482 14.5688C79.949 14.3533 80.1635 14.3096 80.2925 14.3096C80.3787 14.3096 80.4634 14.4829 80.4634 14.9129C80.4634 15.1281 80.4548 15.5825 80.4454 16.0791L80.4454 16.0795C80.434 16.6779 80.4215 17.3376 80.4215 17.7141C80.4215 17.8437 80.507 17.8866 80.636 17.757C81.8375 16.2491 83.5535 14.6546 85.2695 14.6546C85.7848 14.6546 86.342 14.87 86.771 15.215C86.9863 15.3875 87.0718 15.6029 87.0718 15.8612C87.0718 16.1633 86.642 16.8095 86.1275 17.2833C85.7412 17.6275 85.5703 17.6712 85.4405 17.6712C85.355 17.6712 85.1832 17.6275 84.6687 17.3691C84.197 17.0679 83.639 16.8525 83.1672 16.8525C82.5237 16.8525 81.8375 17.2404 81.2795 17.757ZM93.9794 4.00305C94.1939 3.91642 95.0091 3.83057 95.6526 3.83057C99.1281 3.83057 101.831 6.07135 101.831 10.1642C101.831 13.3533 98.9991 15.1195 96.8969 15.335C96.3816 15.4208 94.6229 15.4208 93.9794 15.292C93.5939 15.292 93.5068 14.8604 93.5068 14.6887C93.4649 11.4138 93.5068 5.46803 93.5939 4.69222C93.5939 4.56266 93.8076 4.04598 93.9794 4.00305ZM95.9953 16.1966C98.7846 16.1966 100.072 16.5416 101.788 18.6957C103.117 20.1607 103.462 22.229 103.462 23.5652C103.462 27.1843 101.874 28.6922 100.415 29.5539C99.5999 29.9847 98.6984 30.1572 98.0121 30.1572C95.7808 30.1572 94.6656 29.166 94.2366 28.5197C93.9358 28.046 93.8076 26.9252 93.6358 24.9435C93.4649 23.5215 93.3359 17.7482 93.5068 16.7999C93.5504 16.5845 93.6786 16.3262 93.8931 16.2832C94.3221 16.2395 95.1381 16.1966 95.9953 16.1966ZM92.4343 3.44266C91.4481 3.57144 88.9161 3.61515 88.3161 3.57144C87.8871 3.57144 87.5428 3.701 87.5428 3.87349C87.5428 3.96013 87.6718 4.13183 88.1871 4.21847C89.9039 4.60637 90.2031 4.95057 90.2893 6.50218C90.3321 8.18257 90.3756 13.18 90.3756 15.5074C90.3756 20.2903 90.3756 26.4514 90.2466 27.6151C90.1176 29.166 89.4741 29.8989 87.7581 30.0713C87.3718 30.1572 87.0718 30.2438 87.0718 30.4592C87.0718 30.588 87.3291 30.7605 87.9726 30.7605H90.1176C91.0619 30.7605 92.0481 30.7605 93.8076 30.8464C95.5235 30.8893 96.3815 30.8893 97.1113 30.8893H97.1114C99.7716 30.8893 101.444 30.3726 102.303 29.9847C105.263 28.6493 107.108 26.4085 107.108 23.0907C107.108 20.8499 106.207 18.9978 104.834 17.8341C103.847 17.0583 102.86 16.3691 101.102 15.6799C100.973 15.5933 100.801 15.4637 101.059 15.335C101.831 14.99 102.603 14.5162 103.376 13.9129C104.148 13.2667 105.178 11.7158 105.178 10.0354C105.178 5.20969 101.316 3.09847 96.6396 3.09847C95.2664 3.09847 93.6358 3.27018 92.4343 3.44266ZM111.828 8.91482C111.828 10.0785 110.799 10.5523 110.241 10.5523C109.469 10.5523 108.825 9.8194 108.825 8.95775C108.825 7.88067 109.641 7.27736 110.327 7.27736C111.314 7.27736 111.828 8.18272 111.828 8.91482ZM107.538 15.9384C108.697 15.6364 109.726 15.2056 110.628 14.8176C110.97 14.6022 111.185 14.5164 111.27 14.5164C111.399 14.5164 111.486 14.6459 111.443 15.1197C111.357 15.9814 111.357 18.61 111.357 21.3675C111.357 24.9866 111.357 28.1757 111.443 28.9078C111.528 29.7695 111.957 29.9849 112.644 30.1574C113.073 30.244 113.287 30.3291 113.287 30.5023C113.287 30.7177 112.944 30.8036 112.601 30.8036C112.459 30.8036 112.157 30.7805 111.774 30.7512L111.774 30.7512C111.11 30.7004 110.203 30.6311 109.469 30.6311C108.571 30.6311 107.967 30.6659 107.524 30.6914C107.269 30.7061 107.067 30.7177 106.894 30.7177C106.594 30.7177 106.294 30.6311 106.294 30.4594C106.294 30.2861 106.508 30.1574 107.109 30.0707C108.053 29.8124 108.439 29.4674 108.482 27.7012C108.525 26.4087 108.611 18.5663 108.611 18.1355C108.611 17.533 108.568 17.2738 107.367 16.6276C107.152 16.498 107.023 16.3693 107.023 16.2826C107.023 16.1531 107.152 16.0243 107.538 15.9384ZM118.779 28.4341C118.737 27.6154 118.694 25.59 118.694 20.1609V15.5935C118.694 10.2779 118.81 5.61593 118.851 3.96032L118.851 3.95713C118.86 3.60158 118.866 3.3854 118.866 3.33207C118.866 3.11665 118.823 2.85831 118.737 2.85831C118.592 2.85831 118.418 2.91919 118.289 2.96405C118.265 2.97246 118.243 2.98031 118.222 2.98709L118.075 3.04078C117.172 3.37173 116.185 3.73329 115.004 3.97831C114.618 4.06417 114.36 4.19373 114.36 4.32329C114.36 4.45285 114.489 4.53792 114.79 4.71119C115.905 5.40036 115.99 5.61578 115.99 6.56407C116.017 7.73433 116.011 8.78286 116.002 10.2357V10.2366V10.2378V10.2391C115.996 11.1381 115.99 12.192 115.99 13.5252C115.948 18.696 115.776 25.9779 115.691 27.5717C115.519 29.4675 115.261 29.8554 114.189 30.0708L114.138 30.0824C113.618 30.2031 113.416 30.2499 113.416 30.4587C113.416 30.6741 113.631 30.717 114.145 30.717C114.447 30.717 114.824 30.7004 115.246 30.6818C115.784 30.6581 116.395 30.6312 117.021 30.6312C117.391 30.6312 117.97 30.6533 118.542 30.6751L118.542 30.6751H118.542C119.096 30.6962 119.643 30.717 119.981 30.717C120.539 30.717 120.839 30.5883 120.839 30.4158C120.839 30.2862 120.539 30.1574 120.282 30.1137C119.08 29.8991 118.823 29.597 118.779 28.4341ZM126.331 20.1609C126.331 25.59 126.375 27.6154 126.417 28.4341C126.46 29.597 126.718 29.8991 127.919 30.1137C128.176 30.1574 128.476 30.2862 128.476 30.4158C128.476 30.5883 128.176 30.717 127.618 30.717C127.28 30.717 126.734 30.6962 126.179 30.6751L126.179 30.6751C125.608 30.6533 125.028 30.6312 124.658 30.6312C124.033 30.6312 123.421 30.6581 122.883 30.6818C122.461 30.7004 122.084 30.717 121.782 30.717C121.268 30.717 121.053 30.6741 121.053 30.4587C121.053 30.2499 121.255 30.2031 121.776 30.0824L121.826 30.0708C122.899 29.8554 123.156 29.4675 123.328 27.5717C123.414 25.9779 123.585 18.696 123.628 13.5252C123.628 12.1908 123.634 11.1362 123.64 10.2366V10.2356C123.648 8.78278 123.655 7.73429 123.628 6.56407C123.628 5.61578 123.542 5.40036 122.428 4.71119C122.127 4.53792 121.998 4.45285 121.998 4.32329C121.998 4.19373 122.255 4.06417 122.641 3.97831C123.822 3.73329 124.809 3.37173 125.713 3.04078L125.86 2.98709C125.88 2.98033 125.902 2.97251 125.926 2.96412C126.055 2.91925 126.229 2.85831 126.375 2.85831C126.46 2.85831 126.503 3.11665 126.503 3.33207C126.503 3.3854 126.498 3.60158 126.489 3.95713L126.489 3.96032C126.447 5.61593 126.331 10.2779 126.331 15.5935V20.1609ZM138.388 26.5811C138.388 24.3832 137.272 23.3062 134.484 21.497C133.411 20.85 131.781 19.8158 131.781 18.0066C131.781 16.2833 132.981 15.335 134.355 15.335C135.17 15.335 135.9 15.6363 136.371 15.9813C136.981 16.4707 137.167 17.0379 137.367 17.6456C137.378 17.6794 137.389 17.7134 137.4 17.7475L137.412 17.7759C137.535 18.063 137.621 18.265 137.787 18.265C137.916 18.265 138.002 18.0496 138.002 17.5758C137.976 17.167 137.906 16.698 137.843 16.285C137.801 16.001 137.762 15.7435 137.745 15.5504C137.745 15.4209 137.616 15.2492 137.529 15.1625C137.015 14.9901 135.771 14.6888 134.613 14.6888C133.025 14.6888 131.781 15.2492 131.008 15.8946C130.065 16.5846 129.378 17.7475 129.378 19.2991C129.378 21.1949 131.094 22.7895 132.939 23.9961C134.655 25.0732 135.771 25.9778 135.771 27.6152C135.771 29.3815 134.183 30.5023 132.981 30.5023C132.339 30.5023 131.695 30.4156 131.052 29.9848C130.279 29.511 129.593 28.7352 129.249 27.6582C128.949 26.8394 128.82 26.8394 128.691 26.8394C128.606 26.8394 128.477 26.9682 128.562 27.5286C128.606 28.0031 128.691 29.0802 128.691 29.6835C128.691 29.9419 128.991 30.2439 129.336 30.3727C130.623 30.8894 131.609 31.1477 132.724 31.1477C133.755 31.1477 135.213 30.8035 136.157 30.2002C137.015 29.6406 138.388 28.4769 138.388 26.5811Z" fill="white"/>
</svg>
