<svg width="21" height="19" viewBox="0 0 21 19" fill="none" xmlns="http://www.w3.org/2000/svg">
<path d="M6.68312 0.0157309C7.91707 -0.162042 9.22422 1.18694 9.60068 3.04832C9.97714 4.89925 9.29742 6.55148 8.06347 6.73971C6.83998 6.92794 5.52237 5.57896 5.13545 3.71758C4.74854 1.86666 5.44917 0.214418 6.68312 0.0157309ZM14.16 0.0157309C15.4044 0.214418 16.0946 1.86666 15.7286 3.71758C15.3312 5.57896 14.0241 6.92794 12.7901 6.73971C11.5457 6.55148 10.866 4.89925 11.2529 3.04832C11.6294 1.18694 12.9365 -0.162042 14.16 0.0157309ZM1.08851 4.82605C2.28063 4.31364 3.9015 5.24433 4.74854 6.8652C5.54328 8.51744 5.2714 10.2533 4.08973 10.7657C2.90807 11.2781 1.29766 10.3579 0.471539 8.71613C-0.354581 7.07434 -0.0617791 5.32799 1.08851 4.82605ZM19.9115 4.82605C21.0618 5.32799 21.3546 7.07434 20.5285 8.71613C19.7023 10.3579 18.0919 11.2781 16.9103 10.7657C15.7286 10.2533 15.4567 8.51744 16.2515 6.8652C17.0985 5.24433 18.7194 4.31364 19.9115 4.82605ZM18.1651 16.0989C18.207 17.0819 17.454 18.1694 16.5547 18.5773C14.6829 19.4348 12.466 17.657 10.385 17.657C8.30399 17.657 6.06614 19.508 4.22568 18.5773C3.17995 18.0649 2.45841 16.7054 2.59435 15.5761C2.78258 14.0179 4.65442 13.1814 5.76288 12.0415C7.23735 10.5671 8.28307 7.79589 10.385 7.79589C12.4764 7.79589 13.5849 10.5252 14.9966 12.0415C16.1573 13.3173 18.0919 14.3944 18.1651 16.0989Z" fill="white"/>
</svg>
