<svg width="24" height="20" viewBox="0 0 24 20" fill="none" xmlns="http://www.w3.org/2000/svg">
<path d="M1.8 0C0.80625 0 0 0.767857 0 1.71429C0 2.66071 0.80625 3.42857 1.8 3.42857H22.2C23.1937 3.42857 24 2.66071 24 1.71429C24 0.767857 23.1937 0 22.2 0H1.8ZM1.8 8.28572C0.80625 8.28572 0 9.05357 0 10C0 10.9464 0.80625 11.7143 1.8 11.7143H22.2C23.1937 11.7143 24 10.9464 24 10C24 9.05357 23.1937 8.28572 22.2 8.28572H1.8ZM1.8 16.5714C0.80625 16.5714 0 17.3393 0 18.2857C0 19.2321 0.80625 20 1.8 20H22.2C23.1937 20 24 19.2321 24 18.2857C24 17.3393 23.1937 16.5714 22.2 16.5714H1.8Z" fill="white"/>
</svg>
