<svg width="21" height="22" viewBox="0 0 21 22" fill="none" xmlns="http://www.w3.org/2000/svg">
<path d="M19.72 17.5C19.7599 17.1679 19.7599 16.8321 19.72 16.5L20.77 15.68C20.87 15.61 20.89 15.5 20.83 15.36L19.83 13.64C19.77 13.53 19.64 13.5 19.53 13.53L18.28 14C18 13.83 17.75 13.66 17.44 13.54L17.25 12.21C17.2406 12.1508 17.2102 12.0969 17.1642 12.0583C17.1183 12.0197 17.06 11.999 17 12H15C14.88 12 14.77 12.09 14.75 12.21L14.57 13.54C14.25 13.66 14 13.83 13.72 14L12.5 13.53C12.37 13.5 12.23 13.53 12.17 13.64L11.17 15.36C11.11 15.5 11.14 15.61 11.23 15.68L12.29 16.5C12.27 16.67 12.25 16.84 12.25 17C12.25 17.16 12.27 17.33 12.29 17.5L11.23 18.32C11.14 18.39 11.11 18.53 11.17 18.64L12.17 20.37C12.23 20.5 12.37 20.5 12.5 20.5L13.72 19.97C14 20.17 14.25 20.34 14.57 20.47L14.75 21.79C14.77 21.91 14.88 22 15 22H17C17.13 22 17.23 21.91 17.25 21.79L17.44 20.47C17.75 20.34 18 20.17 18.28 19.97L19.53 20.5C19.64 20.5 19.77 20.5 19.83 20.37L20.83 18.64C20.89 18.53 20.87 18.39 20.77 18.32L19.72 17.5ZM16 18.75C15.04 18.75 14.25 17.97 14.25 17C14.25 16.03 15.04 15.25 16 15.25C16.96 15.25 17.75 16.03 17.75 17C17.75 17.97 16.97 18.75 16 18.75ZM9.08 18H0V17L2 15V9C2 5.9 4 3.2 7 2.3V2C7 0.9 7.9 0 9 0C10.1 0 11 0.9 11 2V2.3C14 3.2 16 5.9 16 9V10C15.31 10 14.63 10.11 14 10.29V9C14 6.2 11.8 4 9 4C6.2 4 4 6.2 4 9V16H9.08C9.03 16.33 9 16.66 9 17C9 17.34 9.03 17.67 9.08 18ZM9.3 19C9.5 19.6 9.74 20.17 10.06 20.69C9.75 20.88 9.39 21 9 21C7.9 21 7 20.1 7 19H9.3Z" fill="white"/>
</svg>
