<svg width="24" height="24" viewBox="0 0 24 24" fill="none" xmlns="http://www.w3.org/2000/svg">
<circle cx="12" cy="12" r="9.5" stroke="black" stroke-width="1.1"/>
<circle cx="8.75" cy="8.75" r="1.25" fill="black"/>
<circle cx="15.25" cy="8.75" r="1.25" fill="black"/>
<path fill-rule="evenodd" clip-rule="evenodd" d="M18.604 13.4034C17.9581 16.4578 15.2467 18.75 12 18.75C8.75333 18.75 6.04201 16.4578 5.39613 13.4034C5.28124 12.8601 5.97748 12.4546 6.49513 12.6556C7.53446 13.0593 9.2898 13.5 12 13.5C14.7103 13.5 16.4656 13.0593 17.5049 12.6556C18.0226 12.4546 18.7188 12.8601 18.604 13.4034ZM17.2354 14.0006C17.0332 15.0348 14.7665 15.85 12 15.85C9.23359 15.85 6.9669 15.0348 6.76471 14.0006C6.75094 13.9302 6.82322 13.8795 6.8908 13.9037C7.37006 14.0755 9.07314 14.6 12 14.6C14.9269 14.6 16.63 14.0755 17.1093 13.9037C17.1769 13.8795 17.2491 13.9302 17.2354 14.0006Z" fill="black"/>
</svg>
