<svg width="20" height="20" viewBox="0 0 20 20" fill="none" xmlns="http://www.w3.org/2000/svg">
<path d="M20 14V2C20 0.9 19.1 0 18 0H6C4.9 0 4 0.9 4 2V14C4 15.1 4.9 16 6 16H18C19.1 16 20 15.1 20 14ZM9.4 10.53L11.03 12.71L13.61 9.49C13.6569 9.4316 13.7162 9.38447 13.7837 9.35209C13.8512 9.3197 13.9251 9.30289 14 9.30289C14.0749 9.30289 14.1488 9.3197 14.2163 9.35209C14.2838 9.38447 14.3431 9.4316 14.39 9.49L17.35 13.19C17.61 13.52 17.38 14 16.96 14H7C6.90714 14 6.81612 13.9741 6.73713 13.9253C6.65815 13.8765 6.59431 13.8067 6.55279 13.7236C6.51126 13.6406 6.49368 13.5476 6.50202 13.4551C6.51036 13.3626 6.54429 13.2743 6.6 13.2L8.6 10.53C8.8 10.27 9.2 10.27 9.4 10.53ZM0 5V18C0 19.1 0.9 20 2 20H15C15.55 20 16 19.55 16 19C16 18.45 15.55 18 15 18H3C2.45 18 2 17.55 2 17V5C2 4.45 1.55 4 1 4C0.45 4 0 4.45 0 5Z" fill="white"/>
</svg>
