<svg width="358" height="358" viewBox="0 0 358 358" fill="none" xmlns="http://www.w3.org/2000/svg">
<path d="M263.959 200.357L263.325 206.407C261.676 210.348 260.028 214.286 258.381 218.221C257.806 219.603 257.228 220.983 256.648 222.36C256.385 223.004 256.012 223.597 255.546 224.114C255.523 224.148 255.492 224.177 255.456 224.199C255.42 224.22 255.38 224.232 255.338 224.235C255.198 224.235 255.148 224.049 255.138 223.91C255.058 222.418 254.88 220.932 254.604 219.463C253.061 212.371 244.827 209.772 238.369 209.933C235.785 209.973 233.239 210.562 230.901 211.663C227.529 213.295 226.215 217.834 226.036 218.003L225.892 218.586L223.58 228.22C223.093 230.368 222.721 231.503 220.737 232.076C220.673 232.097 218.697 233.15 218.632 233.15C217.866 233.364 219.964 232.903 219.133 232.763L216.502 232.351L215.382 232.094L199.032 228.224C199.665 228.331 200.313 228.449 200.972 228.582L204.767 229.487L203.765 224.676C201.155 209.697 205.479 196.107 212.847 188.729C214.787 186.789 215.75 186.291 218.013 184.999L219.284 188.009C219.284 188.009 232.286 191.887 235.351 179.99C236.59 180.098 238.97 180.08 240.198 180.348C246.599 181.69 252.38 185.102 256.648 190.057C257.024 190.487 257.393 190.931 257.758 191.382L257.951 191.618C258.177 191.901 258.417 192.191 258.642 192.481L258.803 192.71C260.675 195.153 262.396 197.706 263.959 200.357Z" fill="#592C5E"/>
<path d="M267.689 275.036C271.155 274.005 274.472 272.844 277.642 271.552C299.118 262.932 313.968 249.02 321.962 233.404C326.212 225.237 328.581 216.223 328.897 207.023C329.167 198.315 327.421 189.662 323.795 181.741C298.764 127.153 239.661 174.985 257.565 131.889C275.469 88.7932 207.03 61.1986 188.929 77.9709C170.829 94.7432 200.879 110.069 145.289 115.149C120.279 117.437 112.314 128.087 108.814 137.587C108.814 137.587 97.8145 168.587 97.8145 200.587" stroke="#D3CCE2" stroke-width="2" stroke-miterlimit="10"/>
<path d="M285.553 222.531C285.12 227.59 281.69 228.413 281.69 228.413C278.791 230.128 274.337 228.284 273.439 225.07C273.425 225.035 273.418 224.999 273.417 224.962C272.701 222.209 271.305 218.672 269.429 214.802C265.813 206.053 261.113 197.231 255.084 190.254C250.815 185.299 245.035 181.888 238.634 180.545C238.612 180.545 238.602 180.524 238.58 180.524C230.092 177.967 225.961 172.748 224.171 167.743C224.171 167.743 224.171 167.743 224.171 167.721C223.404 164.56 222.624 161.478 223.043 159.613C223.759 156.344 224.117 152.811 223.226 152.095C222.105 151.157 220.079 151.851 214.923 152.89C210.459 153.806 208.079 153.287 207.542 150.559C207.457 150.136 207.413 149.705 207.413 149.274C207.391 149.546 206.339 148.465 206.289 148.722C205.952 150.115 205.279 150.674 203.811 151.286C201.631 152.191 200.74 155.689 200.417 158.02C200.081 160.501 201.198 163.923 202.082 166.254C200.951 164.961 199.655 165.112 197.629 165.896C197.12 166.089 195.839 166.035 194.825 165.681C194.968 165.558 195.137 165.469 195.319 165.42C195.645 165.312 193.282 164.138 193.626 164.063C197.066 163.286 198.996 160.418 198.588 157.894C197.575 151.54 198.924 144.065 203.217 139.114C207.95 133.669 215.672 132.537 222.209 135.029C227.343 136.98 232.197 140.982 233.976 146.32C233.976 146.342 233.976 146.363 233.998 146.385C234.224 147.063 234.397 147.759 234.517 148.465C235.172 152.435 233.772 156.459 232.995 160.382C232.716 161.797 233.425 163.34 233.575 164.46C234.438 171.191 242.207 173.091 248.354 175.948C261.274 181.966 271.824 192.255 278.92 204.767C283.631 213.051 285.313 218.701 285.553 222.531Z" fill="#D79FBE"/>
<path d="M217.44 183.663C217.3 183.738 217.161 183.814 217.032 183.899C214.712 185.229 212.578 186.862 210.688 188.754C203.324 196.132 198.999 209.722 201.609 224.701L202.612 229.487" stroke="#381238" stroke-width="2" stroke-miterlimit="10"/>
<path d="M282.597 284.168C282.598 272.986 281.631 261.825 279.708 250.81C278.421 243.336 276.648 235.954 274.402 228.71C273.052 224.311 271.402 219.564 269.44 214.799C267.618 210.339 265.514 206.001 263.139 201.81C260.837 197.707 258.143 193.835 255.095 190.25C250.826 185.296 245.046 181.884 238.645 180.542C237.417 180.281 236.175 180.095 234.925 179.983" stroke="#381238" stroke-width="2" stroke-miterlimit="10"/>
<path d="M150.273 186.853L150.09 186.821C147.904 186.455 145.661 186.643 143.566 187.368C141.471 188.094 139.592 189.334 138.101 190.974L125.857 204.313L124.425 205.888C124.336 205.985 124.252 206.086 124.175 206.192" stroke="#381238" stroke-width="2" stroke-miterlimit="10"/>
<path d="M132.59 209.676L139.31 202.222L139.321 202.211" stroke="#381238" stroke-width="2" stroke-miterlimit="10"/>
<path d="M191.045 248.175L222.653 259.312C225.697 260.385 228.936 260.79 232.151 260.499C235.365 260.208 238.479 259.228 241.281 257.626C244.083 256.024 246.507 253.838 248.388 251.215C250.27 248.593 251.565 245.597 252.185 242.429L259.663 204.252C260.046 202.292 260.028 200.274 259.611 198.321C259.194 196.367 258.386 194.519 257.236 192.885C256.915 192.425 256.566 191.985 256.191 191.568" stroke="#381238" stroke-width="2" stroke-miterlimit="10"/>
<path d="M170.126 246.635C166.102 249.353 163.145 257.605 161.574 263.021C161.305 263.929 160.748 264.726 159.987 265.292C159.227 265.857 158.304 266.161 157.357 266.157C156.715 266.157 156.081 266.018 155.498 265.749C154.605 265.33 153.879 264.622 153.437 263.739C152.995 262.856 152.864 261.85 153.064 260.884C155.695 248.017 164.982 222.617 196.883 228.216C197.521 228.324 198.169 228.442 198.824 228.574L202.611 229.487L213.233 232.076L216.097 232.767C217.184 233.03 218.322 232.989 219.387 232.648C219.453 232.636 219.518 232.618 219.58 232.595C220.562 232.258 221.442 231.68 222.139 230.912C222.837 230.145 223.33 229.214 223.572 228.206L225.989 218.153L226.128 217.569L229.293 204.427" stroke="#381238" stroke-width="2" stroke-miterlimit="10"/>
<path d="M154.569 205.44H143.743C142.509 205.44 141.325 204.95 140.452 204.077C139.579 203.204 139.089 202.021 139.089 200.786C139.089 199.552 139.579 198.369 140.452 197.496C141.325 196.623 142.509 196.132 143.743 196.132H159.08" stroke="#381238" stroke-width="2" stroke-miterlimit="10"/>
<path d="M146.259 205.437C146.105 207.334 145.382 208.738 144.315 209.708C141.566 212.214 136.529 211.927 133.024 210.213" stroke="#381238" stroke-width="2" stroke-miterlimit="10"/>
<path d="M125.871 204.309C122.767 200.557 123.401 195.47 125.81 191.539C132.644 180.384 148.26 182.525 158.388 187.161C166.594 190.906 173.782 196.533 180.781 202.147C184.2 204.889 187.558 207.746 190.805 210.739C191.401 211.278 192.112 211.675 192.884 211.9C193.655 212.126 194.468 212.173 195.261 212.038C196.053 211.904 196.805 211.592 197.46 211.125C198.114 210.658 198.654 210.049 199.039 209.343C200.829 206.038 202.766 202.433 203.131 201.434" stroke="#381238" stroke-width="2" stroke-miterlimit="10"/>
<path d="M144.319 209.708C144.319 209.708 160.469 218.468 172.465 231.055" stroke="#381238" stroke-width="2" stroke-miterlimit="10"/>
<path d="M166.185 251.386C164.395 254.443 165.935 258.933 169.318 260.007C173.638 261.401 178.206 261.859 182.718 261.349C187.64 260.776 190.912 256.713 193.067 252.059C193.223 251.713 193.305 251.337 193.306 250.958C193.308 250.578 193.229 250.202 193.076 249.855C192.923 249.507 192.698 249.196 192.417 248.941C192.135 248.686 191.803 248.493 191.442 248.375C190.791 248.161 190.082 248.2 189.459 248.485C188.835 248.769 188.341 249.279 188.077 249.911C187.361 251.565 186.255 253.634 184.787 254.565" stroke="#381238" stroke-width="2" stroke-miterlimit="10"/>
<path d="M174.617 250.813C174.617 250.813 170.196 255.568 173.683 260.601C173.836 260.813 174.016 261.003 174.22 261.167" stroke="#381238" stroke-width="2" stroke-miterlimit="10"/>
<path d="M180.448 251.597C180.448 251.597 176.36 260.798 181.604 261.471" stroke="#381238" stroke-width="2" stroke-miterlimit="10"/>
<path d="M325.599 284.175H72.4072" stroke="#381238" stroke-width="2" stroke-miterlimit="10"/>
<path d="M172.014 266.837H146.764C146.508 269.221 145.379 271.426 143.594 273.027C141.809 274.628 139.496 275.511 137.098 275.508H52.231C52.2356 277.804 53.1496 280.004 54.7724 281.626C56.3956 283.25 58.5955 284.164 60.891 284.168H172.014C174.313 284.167 176.518 283.256 178.147 281.633C179.775 280.009 180.694 277.807 180.703 275.508V269.687C180.703 268.927 180.401 268.199 179.864 267.662C179.327 267.125 178.598 266.823 177.839 266.823L172.014 266.837Z" stroke="#381238" stroke-width="2" stroke-miterlimit="10"/>
<path d="M133.024 210.213C133.768 211.242 134.304 212.407 134.6 213.642L146.56 263.526C146.825 264.609 146.894 265.73 146.764 266.837C146.508 269.221 145.379 271.426 143.594 273.027C141.81 274.627 139.496 275.511 137.098 275.508H50.6558C48.4727 275.508 46.3534 274.772 44.6393 273.42C42.9252 272.068 41.7165 270.178 41.2082 268.055L29.2689 218.175C28.9256 216.746 28.9109 215.259 29.2256 213.824C29.5403 212.389 30.1761 211.045 31.0857 209.891C31.9951 208.738 33.1543 207.805 34.476 207.165C35.7977 206.524 37.2476 206.192 38.7165 206.192H125.152C126.572 206.189 127.975 206.5 129.261 207.102C130.547 207.704 131.684 208.583 132.591 209.676L133.024 210.213Z" stroke="#381238" stroke-width="2" stroke-miterlimit="10"/>
<path d="M238.634 180.531C238.613 180.531 238.602 180.509 238.581 180.509C230.093 177.953 225.961 172.733 224.171 167.729C224.171 167.729 224.171 167.729 224.171 167.707C222.772 163.805 222.804 160.028 223.309 157.773C223.611 156.578 223.803 155.358 223.881 154.128C223.999 150.645 221.443 151.497 214.133 152.954C210.775 153.634 208.627 152.36 207.553 150.548C207.448 150.39 207.357 150.224 207.281 150.051C206.78 148.996 206.572 147.826 206.679 146.664" stroke="#381238" stroke-width="2" stroke-miterlimit="10"/>
<path d="M202.473 166.726C202.344 166.544 202.212 166.368 202.083 166.229C200.951 164.936 199.655 165.087 197.629 165.871C197.121 166.064 195.839 166.01 194.826 165.656C193.974 165.352 193.337 164.825 193.627 164.038C193.701 163.876 193.812 163.733 193.95 163.621C194.089 163.508 194.251 163.429 194.425 163.39C194.763 163.305 195.104 163.236 195.449 163.186C198.925 162.409 198.148 158.385 197.726 155.861C196.702 149.51 198.062 142.035 202.398 137.084C207.173 131.639 214.985 130.504 221.583 132.996C227.386 135.187 232.846 139.941 233.977 146.295C233.977 146.317 233.977 146.338 233.998 146.36C234.02 146.381 233.998 146.413 233.998 146.435C234.668 150.405 233.998 154.708 233.221 158.636C232.756 160.963 232.931 162.863 233.579 164.435C235.609 169.58 242.458 171.373 247.978 173.919C261.042 179.937 271.685 190.225 278.859 202.738C284.523 212.661 285.865 218.765 285.554 222.531C285.121 227.59 281.691 228.413 281.691 228.413C278.791 230.128 274.334 228.284 273.439 225.07C273.426 225.035 273.418 224.999 273.418 224.962C272.702 222.209 271.306 218.672 269.43 214.802" stroke="#381238" stroke-width="2" stroke-miterlimit="10"/>
<path d="M206.664 146.664C206.664 148.579 205.762 150.469 203.8 151.275C201.595 152.184 200.7 154.579 200.378 156.91C199.927 160.323 200.662 163.786 202.458 166.723C204.122 169.486 206.833 172.533 210.67 172.533C217.701 172.533 220.716 169.143 220.716 169.143" stroke="#381238" stroke-width="2" stroke-miterlimit="10"/>
<path d="M213.964 158.009C214.625 158.009 215.16 157.474 215.16 156.813C215.16 156.153 214.625 155.618 213.964 155.618C213.304 155.618 212.769 156.153 212.769 156.813C212.769 157.474 213.304 158.009 213.964 158.009Z" fill="#381238"/>
<path d="M203.447 158.707C204.107 158.707 204.642 158.172 204.642 157.511C204.642 156.851 204.107 156.316 203.447 156.316C202.787 156.316 202.251 156.851 202.251 157.511C202.251 158.172 202.787 158.707 203.447 158.707Z" fill="#381238"/>
<path d="M208.605 155.689C208.605 155.689 208.007 160.411 208.247 161.059C208.487 161.707 209.983 160.966 209.983 160.966" stroke="#381238" stroke-width="2" stroke-miterlimit="10"/>
<path d="M210.821 165.097C213.381 166.039 216.023 164.84 216.796 162.538" stroke="#381238" stroke-width="2" stroke-miterlimit="10"/>
<path d="M220.153 158.541C221.889 156.083 221.256 152.649 218.739 150.871C216.221 149.092 212.772 149.643 211.036 152.101C209.3 154.558 209.933 157.993 212.451 159.771C214.968 161.55 218.417 160.999 220.153 158.541Z" stroke="#381238" stroke-width="2" stroke-miterlimit="10"/>
<path d="M206.17 159.244C207.907 156.786 207.273 153.352 204.756 151.573C202.238 149.795 198.79 150.345 197.053 152.803C195.317 155.261 195.95 158.695 198.468 160.474C200.985 162.252 204.434 161.702 206.17 159.244Z" stroke="#381238" stroke-width="2" stroke-miterlimit="10"/>
<path d="M201.514 152.227C202.508 152.224 203.467 152.598 204.197 153.272C204.928 153.947 205.376 154.873 205.452 155.865C205.491 156.357 205.432 156.853 205.275 157.321C205.119 157.79 204.87 158.222 204.542 158.593C204.211 158.968 203.808 159.272 203.356 159.487C202.905 159.703 202.414 159.824 201.915 159.846H201.714C200.719 159.848 199.76 159.475 199.03 158.799C198.299 158.124 197.851 157.197 197.776 156.205C197.737 155.712 197.798 155.216 197.955 154.748C198.112 154.279 198.361 153.847 198.689 153.477C199.02 153.103 199.423 152.799 199.874 152.584C200.325 152.368 200.814 152.246 201.313 152.224H201.514V152.227ZM201.514 151.415H201.274C200.67 151.442 200.078 151.59 199.533 151.85C198.988 152.11 198.5 152.477 198.1 152.929C197.699 153.381 197.393 153.909 197.2 154.482C197.008 155.054 196.932 155.659 196.978 156.262C197.075 157.456 197.617 158.569 198.496 159.382C199.375 160.195 200.527 160.648 201.725 160.651H201.965C202.568 160.624 203.16 160.476 203.705 160.216C204.251 159.956 204.738 159.589 205.139 159.137C205.539 158.685 205.845 158.157 206.038 157.584C206.231 157.012 206.306 156.406 206.261 155.804C206.164 154.61 205.622 153.497 204.743 152.684C203.864 151.871 202.711 151.418 201.514 151.415Z" fill="white"/>
<path d="M210.073 155.614L207.137 155.764" stroke="#381238" stroke-width="2" stroke-miterlimit="10"/>
<path opacity="0.53" d="M219.454 158.048C220.925 155.966 220.389 153.058 218.257 151.552C216.126 150.046 213.205 150.513 211.735 152.594C210.264 154.676 210.8 157.584 212.932 159.09C215.063 160.596 217.984 160.129 219.454 158.048Z" fill="white"/>
<path opacity="0.53" d="M205.471 158.75C206.942 156.669 206.406 153.761 204.275 152.255C202.143 150.749 199.223 151.216 197.752 153.297C196.282 155.379 196.817 158.287 198.949 159.792C201.081 161.299 204.001 160.832 205.471 158.75Z" fill="white"/>
<path d="M212.765 172.533L219.284 188.02C219.284 188.02 231.86 191.403 234.918 179.503" stroke="#381238" stroke-width="2" stroke-miterlimit="10"/>
<path d="M89.0729 252.8C93.9965 251.247 96.5734 245.504 94.8292 239.971C93.0847 234.438 87.6792 231.212 82.7557 232.764C77.8324 234.317 75.2552 240.06 76.9997 245.593C78.7439 251.125 84.1494 254.352 89.0729 252.8Z" fill="#DED7F0"/>
<path d="M211.024 284.168C210.885 271.563 208.662 259.108 207.638 254.025" stroke="#381238" stroke-width="2" stroke-miterlimit="10"/>
</svg>
